<svg width="400" height="400" viewBox="0 0 400 400" fill="none" xmlns="http://www.w3.org/2000/svg">
<rect width="400" height="400" rx="36" fill="#F4EFE6"/>
<rect x="26" y="26" width="348" height="348" rx="28" fill="url(#bg)"/>
<ellipse cx="204" cy="310" rx="110" ry="18" fill="#0F172A" fill-opacity="0.16"/>
<rect x="72" y="118" width="256" height="148" rx="20" fill="#1F2937"/>
<rect x="81" y="126" width="238" height="132" rx="16" fill="#0B1220"/>
<rect x="88" y="133" width="224" height="118" rx="12" fill="url(#surface)"/>
<path d="M116 224C144 198 174 185 206 184C235 183 266 193 296 220" stroke="#38BDF8" stroke-width="6" stroke-linecap="round"/>
<path d="M134 219C156 202 180 194 205 194C228 194 252 201 276 217" stroke="#FACC15" stroke-width="4" stroke-linecap="round" stroke-opacity="0.9"/>
<circle cx="140" cy="170" r="8" fill="#22C55E"/>
<circle cx="262" cy="154" r="10" fill="#60A5FA"/>
<circle cx="232" cy="224" r="7" fill="#F97316"/>
<rect x="92" y="58" width="112" height="34" rx="12" fill="#FFF7ED"/>
<text x="112" y="80" fill="#0F172A" font-family="Arial, Helvetica, sans-serif" font-size="16" font-weight="700">Mousepad</text>
<rect x="278" y="60" width="58" height="24" rx="8" fill="#0F172A" fill-opacity="0.9"/>
<text x="293" y="77" fill="#F8FAFC" font-family="Arial, Helvetica, sans-serif" font-size="12" font-weight="700">DEMO</text>
<rect x="254" y="332" width="82" height="28" rx="10" fill="#111827"/>
<text x="268" y="350" fill="#F8FAFC" font-family="Arial, Helvetica, sans-serif" font-size="12" font-weight="700">400 x 400</text>
<defs>
<linearGradient id="bg" x1="54" y1="38" x2="350" y2="362" gradientUnits="userSpaceOnUse">
<stop stop-color="#FFF8EE"/>
<stop offset="1" stop-color="#E2E8F0"/>
</linearGradient>
<linearGradient id="surface" x1="88" y1="133" x2="312" y2="251" gradientUnits="userSpaceOnUse">
<stop stop-color="#0F172A"/>
<stop offset="1" stop-color="#1E293B"/>
</linearGradient>
</defs>
</svg>
